<svg xmlns="http://www.w3.org/2000/svg" viewBox="0 0 64 64" fill="none">
  <!-- Left curly brace -->
  <path d="M20 16 C16 16 14 18 14 22 L14 28 C14 30 12 32 10 32 C12 32 14 34 14 36 L14 42 C14 46 16 48 20 48" stroke="#65d169" stroke-width="2.5" stroke-linecap="round" fill="none"/>
  
  <!-- Right curly brace -->
  <path d="M44 16 C48 16 50 18 50 22 L50 28 C50 30 52 32 54 32 C52 32 50 34 50 36 L50 42 C50 46 48 48 44 48" stroke="#65d169" stroke-width="2.5" stroke-linecap="round" fill="none"/>
  
  <!-- Magnifying glass in center -->
  <circle cx="32" cy="32" r="8" fill="none" stroke="#65d169" stroke-width="2.5"/>
  <line x1="37.5" y1="37.5" x2="42" y2="42" stroke="#65d169" stroke-width="2.5" stroke-linecap="round"/>
</svg>
